<?xml version="1.0" encoding="UTF-8"?>
<svg width="196px" height="60px" viewBox="0 0 196 60" version="1.1" xmlns="http://www.w3.org/2000/svg" xmlns:xlink="http://www.w3.org/1999/xlink">
    <!-- Generator: Sketch 45.2 (43514) - http://www.bohemiancoding.com/sketch -->
    <title>open-falcon-logo</title>
    <desc>Created with Sketch.</desc>
    <defs>
        <linearGradient x1="29.8389668%" y1="27.9057717%" x2="100%" y2="100%" id="linearGradient-1">
            <stop stop-color="#009FEA" offset="0%"></stop>
            <stop stop-color="#01D9DB" offset="100%"></stop>
        </linearGradient>
    </defs>
    <g id="Page-1" stroke="none" stroke-width="1" fill="none" fill-rule="evenodd">
        <g id="open-falcon-logo">
            <g id="text" transform="translate(74.886792, 15.692308)" fill-rule="nonzero" fill="#73B5CF">
                <path d="M34.8091437,20.3684273 L30.3099633,20.3684273 C27.8192381,20.3684273 25.7999588,18.3537773 25.7999588,15.8684273 C25.7999588,13.3832273 27.8138261,11.3684273 30.3045513,11.3684273 C32.7952764,11.3684273 34.8091437,13.3832273 34.8091437,15.8684273 L34.8091437,20.3684273 Z M30.3045513,8.36842731 C26.1532425,8.36842731 22.7907335,11.7263273 22.7907335,15.8684273 C22.7907335,20.0105273 26.1588048,23.3684273 30.3099633,23.3684273 L37.8158133,23.3684273 L37.8158133,15.8684273 C37.8158133,11.7263273 34.45586,8.36842731 30.3045513,8.36842731 Z M88.9291971,8.36842731 C84.7778883,8.36842731 81.412523,11.7263273 81.412523,15.8684273 C81.412523,20.0105273 84.7778883,23.3684273 88.9291971,23.3684273 C93.0805058,23.3684273 96.4458711,20.0105273 96.4458711,15.8684273 C96.4458711,11.7263273 93.0805058,8.36842731 88.9291971,8.36842731 Z M88.9291971,20.3684273 C86.4384719,20.3684273 84.4191926,18.3536273 84.4191926,15.8684273 C84.4191926,13.3832273 86.4384719,11.3684273 88.9291971,11.3684273 C91.4199222,11.3684273 93.4392015,13.3832273 93.4392015,15.8684273 C93.4392015,18.3536273 91.4199222,20.3684273 88.9291971,20.3684273 Z M51.8256009,19.8876623 L51.7968872,19.9385123 L51.7968872,19.8855623 C50.5942194,18.9527123 49.8460097,17.5184123 49.8460097,15.8684123 L49.842552,15.8684123 L49.842552,2.37831231 C49.8040666,1.32246231 48.5412654,0.568412308 46.9878695,0.568412308 C46.9372071,0.568412308 46.8358824,0.571712308 46.8358824,0.573362308 L46.8358824,2.37831231 L46.8358824,16.0184123 L46.842497,16.0184123 C46.9051861,19.2570623 48.9839975,22.1258123 51.7968872,23.3291123 L51.7968872,23.3126123 L51.915801,23.3795123 C51.9416584,23.3367623 51.9688687,23.2953623 51.9938241,23.2512623 C52.7575182,21.9017123 52.6776911,20.4119123 51.8256009,19.8876623 Z M120.499228,15.8684273 C120.499228,11.8184273 117.133863,8.36962731 112.982554,8.36962731 C108.831997,8.36962731 105.467383,11.8184273 105.46588,15.8684273 L105.46588,21.5684273 L105.46588,23.3778773 C105.516091,23.3795273 105.565401,23.3687273 105.616214,23.3687273 C107.162694,23.3687273 108.423391,22.6184273 108.47255,21.5684273 L108.47255,15.8684273 C108.47255,13.4684273 110.491829,11.3696273 112.982554,11.3696273 C115.472377,11.3696273 117.491055,13.4684273 117.492559,15.8684273 L117.492559,21.5684273 C117.541718,22.6184273 118.802565,23.3687273 120.348895,23.3687273 C120.399707,23.3687273 120.449167,23.3795273 120.499228,23.3778773 L120.499228,21.5684273 L120.499228,15.8684273 Z M67.2757487,8.36842731 C63.2167447,8.36842731 59.7629833,11.7290273 59.7629833,15.8711273 C59.7629833,20.0124773 63.2221567,23.3684273 67.2811607,23.3696273 L67.2811607,23.3684273 L70.5830853,23.3684273 L72.3965581,23.3684273 C72.3982117,23.3684273 72.390244,23.2716773 72.390244,23.2211273 C72.390244,21.6780773 71.6408316,20.4174773 70.5884973,20.3684273 L67.2757487,20.3684273 C64.870413,20.3684273 62.7696529,18.3563273 62.7696529,15.8711273 C62.7696529,13.3866773 64.875825,11.3711273 67.2811607,11.3697773 L67.2811607,11.3684273 L70.5884973,11.3684273 L70.5884973,11.3687273 C71.6408316,11.3196773 72.390244,10.0640273 72.390244,8.52112731 C72.390244,8.47057731 72.3982117,8.36842731 72.3965581,8.36842731 L70.5830853,8.36842731 L67.2757487,8.36842731 Z M15.2640322,8.36842731 L6.2458273,8.36842731 C6.2458273,5.88322731 8.26495629,3.86842731 10.7558317,3.86842731 L12.5598335,3.86842731 C13.5601525,3.83002731 14.3638353,2.56822731 14.3638353,1.01842731 C14.3638353,0.967877308 14.360528,0.868427308 14.3588743,0.868427308 L10.7558317,0.868427308 C6.60437266,0.868427308 3.23915767,4.22632731 3.23915767,8.36842731 L2.03648982,8.36842731 L2.03648982,8.37862731 C0.984155448,8.46217731 0.279993421,9.69862731 0.279993421,11.2185773 L0.279993421,11.3684273 L1.97680743,11.3684273 L2.03648982,11.3684273 L3.23915767,11.3684273 L3.23915767,21.5684273 L3.23915767,23.3399273 C3.23915767,23.3415773 3.34063277,23.3399273 3.39114482,23.3399273 C4.94439035,23.3399273 6.20734193,22.4684273 6.2458273,21.5684273 L6.2458273,11.3684273 L13.4618344,11.3684273 C14.5141688,11.3204273 15.2658362,10.0620773 15.2658362,8.51842731 C15.2658362,8.46787731 15.2640322,8.36842731 15.2640322,8.36842731 Z" id="Combined-Shape"></path>
            </g>
            <g id="brand" fill="url(#linearGradient-1)">
                <path d="M48.053914,27.2563467 C45.0399774,25.3900464 41.7728167,24.2669963 38.4687525,23.8363463 C45.972916,22.1825961 53.6308444,23.5010963 60,27.1541967 C59.7616273,24.6769464 59.2086747,22.1890461 58.3157898,19.7417958 C57.8980002,18.5966957 57.4160042,17.4934457 56.8782032,16.4324956 C52.8626213,16.0982955 48.7228276,16.4290456 44.604786,17.5157957 C40.1510124,18.6910458 36.1141286,20.645846 32.5995943,23.1917962 C37.1844803,29.8880969 40.3301295,41.126398 29.8238804,51.6781491 C26.6813815,54.8341495 22.8362159,56.8730996 18.7850807,57.7988998 C18.8755392,57.8354998 18.9665979,57.8705998 19.0575065,57.9062998 C19.1796181,57.9542998 19.3012798,58.0033498 19.4239914,58.0496998 C19.6518631,58.1359498 19.8809349,58.2196499 20.1113568,58.3006499 C20.114357,58.3016999 20.1175074,58.3027499 20.1206576,58.3037999 C20.3413287,58.3811999 20.5628998,58.4560499 20.7853708,58.5283499 C20.7924216,58.5305999 20.7996222,58.5326999 20.8068229,58.5349499 C20.9857899,58.5929999 21.1653569,58.6490999 21.3455241,58.7038499 C21.4085301,58.7228999 21.4721362,58.7407499 21.5351422,58.7594999 C21.6539535,58.7945999 21.7726147,58.8299999 21.8918761,58.8635999 C21.954582,58.8812999 22.017738,58.8979499 22.080744,58.9153499 C22.2018055,58.9486499 22.3230171,58.9822499 22.4445287,59.0140499 C22.501684,59.0290499 22.5591396,59.0429999 22.6164449,59.0576999 C22.7453072,59.0906999 22.8743196,59.1235499 23.0036318,59.1548999 C23.0535866,59.1668999 23.1038413,59.1781499 23.1539461,59.1899999 C23.2921092,59.2226999 23.4302723,59.2549499 23.5690356,59.2856999 C23.6108896,59.2949999 23.6530435,59.3036999 23.6950476,59.3126999 C23.8434116,59.3449499 23.9920758,59.3764499 24.1410399,59.40645 C24.1744931,59.4132 24.2080964,59.4195 24.2415495,59.4261 C24.4004147,59.45745 24.5594297,59.4879 24.7188949,59.5167 C24.7440973,59.52135 24.7694497,59.5257 24.7946521,59.5302 C24.9635682,59.5602 25.1324842,59.589 25.3020004,59.6163 C25.3197021,59.61915 25.3375538,59.62185 25.3552554,59.6247 C25.5324223,59.65275 25.7097392,59.67945 25.8875061,59.7045 C25.9005573,59.7063 25.9134585,59.70795 25.9263598,59.70975 C26.1089271,59.73525 26.2917945,59.75895 26.4749619,59.78115 C26.4853129,59.78235 26.4956639,59.78355 26.5061649,59.7849 C26.6906825,59.80695 26.87565,59.82735 27.0609176,59.84595 C27.0724687,59.84715 27.0840198,59.8482 27.0957209,59.8494 C27.2725877,59.86695 27.4496046,59.883 27.6269215,59.8974 C27.653324,59.8995 27.6794264,59.9019 27.705829,59.90385 C27.8712947,59.91705 28.0373604,59.9286 28.2035762,59.9391 C28.2290787,59.9406 28.2547311,59.94225 28.2802336,59.9439 C28.2904346,59.9445 28.3006356,59.94525 28.3108365,59.94585 C28.4541001,59.95425 28.5978138,59.96115 28.7415274,59.96775 C28.8067837,59.97075 28.8720399,59.97375 28.937296,59.9763 C28.9872508,59.97825 29.0375056,59.9793 29.0874604,59.98095 C29.251876,59.9862 29.4162916,59.9916 29.5813073,59.9943 C29.7446728,59.99715 29.9081884,59.9997 30.072304,60 C30.1638127,60 30.2556214,59.99805 30.3471301,59.99715 C30.4938441,59.9958 30.640558,59.99505 30.786672,59.9916 C30.9503376,59.9877 31.113253,59.98095 31.2761685,59.9745 C31.354776,59.9712 31.4333835,59.96925 31.5119909,59.9655 C33.0659887,59.89035 34.6276371,59.69145 36.1849353,59.3663999 C42.3376204,53.2349993 45.4208636,44.2699484 43.6350938,35.1221974 C43.1805506,32.7931472 42.4366298,30.5933969 41.449686,28.5509968 C47.7957394,34.9817974 50.7432197,44.1218984 49.2874813,53.0692493 C49.3108836,53.0498993 49.3348858,53.0308493 49.358288,53.0113493 C49.4199438,52.9598993 49.4811497,52.9078493 49.5423555,52.8559493 C49.662367,52.7540993 49.7817782,52.6514993 49.9001395,52.5476993 C49.968096,52.4882993 50.0354524,52.4282993 50.1028089,52.3682993 C50.2166696,52.2667493 50.3297804,52.1644491 50.4419911,52.0612491 C50.5064972,52.0018491 50.5708533,51.9419991 50.6349094,51.8821491 C50.7522206,51.7721991 50.8686316,51.6614991 50.9842926,51.5498991 C51.0372476,51.4985991 51.0900527,51.4471491 51.1427077,51.3955491 C51.27202,51.2686491 51.3999822,51.1406991 51.5270443,51.0116991 C51.5609475,50.977199 51.5948507,50.942699 51.628454,50.908049 C51.777568,50.755049 51.9250321,50.600399 52.070846,50.444249 C52.0786467,50.435849 52.0865974,50.427449 52.0943982,50.418899 C54.8173071,47.4904488 56.9146566,44.0546984 58.2845869,40.339048 C56.6065273,35.0930974 53.1177955,30.3920969 48.053914,27.2563467 Z M19.7399964,36.8766277 C24.0709082,35.3073274 28.6548942,35.8398276 32.3666972,37.9494278 C32.3200428,37.2618277 32.1773792,36.5691276 31.9286556,35.8888776 C31.1946358,33.8814273 29.6881925,32.3775272 27.8658192,31.5844771 C27.7608092,30.6606271 27.548539,29.7342269 27.2150573,28.8219268 C25.9898908,25.4712264 23.4204464,22.9960762 20.3342029,21.7758261 C21.0862245,21.2079261 21.9350052,20.740826 22.868394,20.402576 C25.6667601,19.3887258 28.6298418,19.7460258 31.0173189,21.1284261 C33.7292767,16.1916255 38.1859005,12.1776251 43.9147954,10.1017749 C46.3220743,9.22952482 48.7781078,8.76557477 51.2077389,8.66957476 C51.1805863,8.64287476 51.1540338,8.61542475 51.1267311,8.58872475 C51.092228,8.55512475 51.0577247,8.52137475 51.0230713,8.48792473 C50.8697568,8.33912472 50.714642,8.19197471 50.5581771,8.0464747 C50.5496263,8.0386747 50.5412256,8.0307247 50.5326747,8.02292469 C45.1180598,3.01202418 37.9758806,0.120473885 30.5269222,0.00497387298 C30.4102112,0.0031738728 30.29335,0.000923872573 30.1761889,0.000623872543 C30.1325347,0.000473872528 30.0888806,-0.000126127533 30.0450764,2.3872482e-05 C29.9582182,2.3872482e-05 29.8710599,0.00182387267 29.7842016,0.00272387276 C29.7019938,0.00347387284 29.619786,0.00437387292 29.5375782,0.00587387308 C26.3070209,0.0691738795 23.0317594,0.654473939 19.8259547,1.81607406 C15.2415186,3.47717423 11.3093447,6.1315745 8.18334747,9.44537483 C4.75477142,13.0915752 2.30053804,17.5369757 1.00396474,22.3386262 C0.981762626,22.4218762 0.959110472,22.5049762 0.937658432,22.5885262 C0.89925478,22.7377762 0.861901228,22.8871762 0.825897804,23.0368762 C0.788994295,23.1906262 0.752690842,23.3445262 0.718337575,23.4990263 C0.698235664,23.5884263 0.679033838,23.6779763 0.659832012,23.7676763 C0.612427504,23.9899763 0.565923082,24.2125763 0.523469045,24.4360763 C0.516418374,24.4728263 0.509217689,24.5094263 0.502317033,24.5461763 C0.476364564,24.6862764 0.451462196,24.8265264 0.427459914,24.9669264 C0.415758802,25.0347264 0.404357717,25.1023764 0.393256662,25.1701764 C0.372254664,25.2978264 0.35170271,25.4256264 0.33235087,25.5535764 C0.319599658,25.6380264 0.30774853,25.7224764 0.295747389,25.8070764 C0.279095805,25.9242266 0.261994179,26.0412266 0.246692724,26.1586766 C0.22509067,26.3241266 0.205288787,26.4898766 0.186537004,26.6559266 C0.174235834,26.7642266 0.163134779,26.8728266 0.152183737,26.9814266 C0.138982482,27.1099767 0.12593124,27.2385267 0.114530156,27.3673767 C0.108529586,27.4344267 0.103279086,27.5014767 0.0978785727,27.5686767 C0.0785267324,27.8103267 0.0605250206,28.0522767 0.0468737224,28.2954268 C0.0395230233,28.4254768 0.0329223956,28.5556768 0.0272218536,28.6860268 C0.0249716395,28.7346268 0.0228714398,28.7833768 0.0207712401,28.8321268 C0.0197211403,28.8573268 0.0182209976,28.8825268 0.017320912,28.9078768 C0.0101202273,29.1061768 0.00441968516,29.3046268 0.00111937132,29.5033769 C0.000819342786,29.5176269 0.000369299989,29.5318769 6.9271457e-05,29.5461269 C-0.00203092826,29.6881769 0.0443234798,29.8300769 0.0441734656,29.9727269 C0.0440234513,30.0753269 0.0969784871,30.1780769 0.0969784871,30.2808269 L0.0969784871,30.2845769 C0.0969784871,30.4291769 0.0495739791,30.5740769 0.052874293,30.7183771 C0.0531743215,30.7270771 0.0288720105,30.7359271 0.0290220247,30.7447771 C0.0288720105,30.7362271 0.0161207979,30.7276771 0.0158207694,30.7192771 C0.0161207979,30.7276771 0.0102702415,30.7362271 0.0105702701,30.7447771 C0.0146206553,30.9057271 0.0177709548,31.0669771 0.0245215968,31.2282271 C0.0273718678,31.2976771 0.0282719533,31.3669771 0.0315722673,31.4364271 C0.0279719248,31.3600771 0.0248216253,31.2838771 0.02182134,31.2075271 C0.0155207409,31.0531771 0.00832005607,30.8989771 0.0042696709,30.7447771 C0.00847007034,30.9057271 0.0147706695,31.0669771 0.0213712971,31.2282271 C0.0243715824,31.2985771 0.0260217394,31.3689271 0.0294720676,31.4394271 C0.0333724385,31.5198271 0.0399730662,31.6005271 0.0444734941,31.6809271 C0.0548244785,31.8642272 0.0650254485,32.0475272 0.0788267609,32.2309772 C0.0944282445,32.4373772 0.113930099,32.6439272 0.13403201,32.8504772 C0.13928251,32.9053772 0.143182881,32.9601272 0.148883423,33.0148772 C0.173635777,33.2554773 0.201838458,33.4962273 0.232441369,33.7368273 C0.234991611,33.7567773 0.236941798,33.7765773 0.23949204,33.7965273 C0.256143623,33.9244773 0.27609552,34.0524273 0.294397261,34.1803773 C0.28449632,34.1073273 0.275795492,34.0342773 0.266644621,33.9612273 C0.291546989,34.1584773 0.317199429,34.3558774 0.346902253,34.5531274 C0.35665318,34.6174774 0.366104079,34.6819774 0.376455064,34.7461774 C0.389956348,34.8307774 0.405557831,34.9152274 0.420109216,34.9996774 C0.721037832,36.7608277 1.22103538,38.5195778 1.8564958,40.258078 C3.3654893,44.3853284 5.66340782,47.9805288 8.54908224,50.932529 C8.58823597,50.972429 8.6275397,51.0118791 8.66684345,51.0516291 C8.81955797,51.2061291 8.97422268,51.3585291 9.13023751,51.5094291 C9.18139238,51.5589291 9.23224722,51.6087291 9.2837021,51.6577791 C9.4793207,51.8443791 9.67673949,52.0288791 9.87730855,52.2099293 C9.32495603,45.6336285 13.2113756,39.2421279 19.7399964,36.8766277 Z" id="svg/open-falocn__combined-shape"></path>
            </g>
        </g>
    </g>
</svg>